# xmcd CD database file
#
# Track frame offsets:
#	150
#	13480
#	27947
#	38872
#	47837
#	57870
#	67457
#	80867
#	92975
#	107110
#	117670
#	128237
#	142482
#	151837
#	162832
#
# Disc length: 2310 seconds
#
# Revision: 0
# Processed by: cddbd v1.4PL0 Copyright (c) Steve Scherf et al.
# Submitted via: CDex 1.50beta9
#
DISCID=e709040f
DTITLE=Various Artist - WESTERN LOVE SONGS 8
DYEAR=2002
DGENRE=Country
TTITLE0=WHEN A MAN LOVES A WOMAN
TTITLE1=LOVE STORY
TTITLE2=SEA OF LOVE
TTITLE3=CRYING IN THE RAIN
TTITLE4=DON'T FORBID ME
TTITLE5=SUMMER HOLIDAY
TTITLE6=SOMEWHERE IN TIME
TTITLE7=CALENDAR GIRL
TTITLE8=AM I THAT EASY TO FORGET
TTITLE9=TO KNOW YOU IS TO LOVE YOU
TTITLE10=BYE BYE LOVE
TTITLE11=THE MANSION YOU STOLE
TTITLE12=IM GONNA KNOCK ON YOUR DOOR
TTITLE13=HELLO DOLLY
TTITLE14=RUBBER BALL
EXTD=YEAR: 2002
EXTT0=
EXTT1=
EXTT2=
EXTT3=
EXTT4=
EXTT5=
EXTT6=
EXTT7=
EXTT8=
EXTT9=
EXTT10=
EXTT11=
EXTT12=
EXTT13=
EXTT14=
PLAYORDER=
